<?xml version="1.0" standalone="no"?>
<!DOCTYPE svg PUBLIC "-//W3C//DTD SVG 20010904//EN"
 "http://www.w3.org/TR/2001/REC-SVG-20010904/DTD/svg10.dtd">
<svg version="1.0" xmlns="http://www.w3.org/2000/svg"
 width="213.000000pt" height="213.000000pt" viewBox="0 0 213.000000 213.000000"
 preserveAspectRatio="xMidYMid meet">

<g transform="translate(0.000000,213.000000) scale(0.100000,-0.100000)"
fill="#000000" stroke="none">
<path d="M1061 2105 c-1 -5 -23 -152 -49 -325 l-48 -315 33 -110 c19 -60 41
-135 50 -165 l16 -54 49 166 49 166 -50 323 c-27 178 -50 320 -50 314z"/>
<path d="M341 1770 c14 -19 103 -138 198 -265 l172 -229 151 -80 152 -79 -31
54 c-16 30 -54 97 -83 150 l-52 97 -252 183 c-138 100 -258 187 -266 193 -8 6
-3 -5 11 -24z"/>
<path d="M1522 1607 l-254 -192 -75 -143 c-41 -79 -73 -145 -71 -146 1 -2 68
33 148 78 l145 81 157 215 c87 118 171 234 188 258 17 23 28 42 23 41 -4 0
-122 -87 -261 -192z"/>
<path d="M1305 1119 c-86 -26 -158 -49 -161 -51 -2 -2 69 -25 157 -51 l160
-48 319 48 c175 26 317 49 316 51 -2 2 -145 24 -319 50 l-314 48 -158 -47z"/>
<path d="M315 1114 c-154 -24 -284 -44 -290 -45 -5 0 136 -23 314 -50 l323
-50 159 47 c88 26 156 51 152 55 -18 16 -295 89 -335 88 -24 -1 -169 -21 -323
-45z"/>
<path d="M1194 869 l84 -152 218 -160 c121 -88 241 -175 268 -195 44 -33 30
-11 -150 230 l-199 266 -90 47 c-49 27 -118 63 -152 82 l-62 34 83 -152z"/>
<path d="M861 935 c-74 -40 -144 -84 -156 -97 -35 -37 -378 -511 -363 -502 7
4 124 90 260 192 l248 184 46 86 c26 48 62 115 81 150 19 34 30 62 26 61 -4 0
-68 -33 -142 -74z"/>
<path d="M1031 890 c-18 -58 -39 -127 -48 -155 -9 -27 -15 -63 -15 -80 2 -37
89 -616 94 -620 2 -2 25 141 51 318 l47 322 -49 160 -49 160 -31 -105z"/>
</g>
</svg>
