<?xml version="1.0" standalone="no"?>
<!DOCTYPE svg PUBLIC "-//W3C//DTD SVG 20010904//EN"
 "http://www.w3.org/TR/2001/REC-SVG-20010904/DTD/svg10.dtd">
<svg version="1.0" xmlns="http://www.w3.org/2000/svg"
 width="512.000000pt" height="512.000000pt" viewBox="0 0 512.000000 512.000000"
 preserveAspectRatio="xMidYMid meet">
<metadata>
Created by potrace 1.14, written by Peter Selinger 2001-2017
</metadata>
<g transform="translate(0.000000,512.000000) scale(0.100000,-0.100000)"
fill="#000000" stroke="none">
<path d="M609 5100 c-294 -72 -519 -299 -589 -594 -19 -79 -20 -133 -20 -1946
0 -1813 1 -1867 20 -1946 71 -297 297 -523 594 -594 79 -19 133 -20 1946 -20
1813 0 1867 1 1946 20 297 71 523 297 594 594 19 79 20 133 20 1946 0 1813 -1
1867 -20 1946 -71 297 -297 523 -594 594 -79 19 -132 20 -1951 19 -1790 0
-1873 -1 -1946 -19z m2047 -1167 l91 -607 -91 -303 c-50 -167 -93 -303 -96
-303 -3 0 -46 137 -96 303 l-91 304 91 606 c50 334 93 607 96 607 3 0 46 -273
96 -607z m940 -460 l-364 -499 -264 -144 c-145 -79 -274 -151 -287 -159 -26
-17 -36 -37 196 399 l88 165 495 371 c272 204 496 370 498 369 2 -1 -161 -227
-362 -502z m-1945 120 l495 -361 144 -264 c79 -144 151 -274 159 -287 17 -26
37 -36 -399 196 l-165 88 -113 150 c-259 342 -632 847 -624 844 4 -2 231 -167
503 -366z m452 -939 c163 -49 297 -91 297 -94 0 -3 -137 -46 -303 -96 l-304
-91 -606 91 c-334 50 -607 93 -607 96 0 6 1199 189 1215 185 6 -1 144 -42 308
-91z m1845 -1 c325 -48 592 -90 592 -93 0 -3 -273 -46 -607 -96 l-606 -91
-304 91 c-166 50 -303 93 -303 96 0 9 603 188 620 185 8 -2 282 -43 608 -92z
m-1552 -315 c-36 -68 -105 -197 -153 -288 l-88 -165 -495 -371 c-272 -204
-496 -370 -498 -369 -2 1 161 227 362 502 l364 499 284 156 c155 86 284 157
286 157 2 1 -26 -54 -62 -121z m674 -95 l165 -88 143 -190 c311 -411 602 -806
590 -799 -7 4 -234 168 -503 365 l-491 357 -144 264 c-79 144 -151 274 -159
287 -17 26 -37 36 399 -196z m-414 -146 l91 -304 -91 -606 c-50 -334 -93 -607
-96 -607 -3 0 -46 273 -96 607 l-91 607 91 303 c50 167 93 303 96 303 3 0 46
-137 96 -303z"/>
</g>
</svg>
